TITLE ""
FILE "1Q_t_0239-0248.mp3" MP3
  TRACK 01 AUDIO
    TITLE "1Q_t_0239-0248_01"
    INDEX 01 00:00:00
  TRACK 02 AUDIO
    TITLE "1Q_t_0239-0248_02"
    INDEX 01 00:01:22
  TRACK 03 AUDIO
    TITLE "1Q_t_0239-0248_03"
    INDEX 01 00:01:35
  TRACK 04 AUDIO
    TITLE "1Q_t_0239-0248_04"
    INDEX 01 00:02:43
  TRACK 05 AUDIO
    TITLE "1Q_t_0239-0248_05"
    INDEX 01 00:02:54
  TRACK 06 AUDIO
    TITLE "1Q_t_0239-0248_06"
    INDEX 01 00:08:45
  TRACK 07 AUDIO
    TITLE "1Q_t_0239-0248_07"
    INDEX 01 00:09:23
  TRACK 08 AUDIO
    TITLE "1Q_t_0239-0248_08"
    INDEX 01 00:10:48
  TRACK 09 AUDIO
    TITLE "1Q_t_0239-0248_09"
    INDEX 01 00:10:66
  TRACK 10 AUDIO
    TITLE "1Q_t_0239-0248_10"
    INDEX 01 00:11:71
  TRACK 11 AUDIO
    TITLE "1Q_t_0239-0248_11"
    INDEX 01 00:12:12
  TRACK 12 AUDIO
    TITLE "1Q_t_0239-0248_12"
    INDEX 01 00:17:22
  TRACK 13 AUDIO
    TITLE "1Q_t_0239-0248_13"
    INDEX 01 00:17:73
  TRACK 14 AUDIO
    TITLE "1Q_t_0239-0248_14"
    INDEX 01 00:19:15
  TRACK 15 AUDIO
    TITLE "1Q_t_0239-0248_15"
    INDEX 01 00:19:31
  TRACK 16 AUDIO
    TITLE "1Q_t_0239-0248_16"
    INDEX 01 00:20:54
  TRACK 17 AUDIO
    TITLE "1Q_t_0239-0248_17"
    INDEX 01 00:20:70
  TRACK 18 AUDIO
    TITLE "1Q_t_0239-0248_18"
    INDEX 01 00:26:43
  TRACK 19 AUDIO
    TITLE "1Q_t_0239-0248_19"
    INDEX 01 00:27:21
  TRACK 20 AUDIO
    TITLE "1Q_t_0239-0248_20"
    INDEX 01 00:28:36
  TRACK 21 AUDIO
    TITLE "1Q_t_0239-0248_21"
    INDEX 01 00:28:52
  TRACK 22 AUDIO
    TITLE "1Q_t_0239-0248_22"
    INDEX 01 00:31:21
  TRACK 23 AUDIO
    TITLE "1Q_t_0239-0248_23"
    INDEX 01 00:31:36
  TRACK 24 AUDIO
    TITLE "1Q_t_0239-0248_24"
    INDEX 01 00:36:63
  TRACK 25 AUDIO
    TITLE "1Q_t_0239-0248_25"
    INDEX 01 00:37:43
  TRACK 26 AUDIO
    TITLE "1Q_t_0239-0248_26"
    INDEX 01 00:38:42
  TRACK 27 AUDIO
    TITLE "1Q_t_0239-0248_27"
    INDEX 01 00:38:60
  TRACK 28 AUDIO
    TITLE "1Q_t_0239-0248_28"
    INDEX 01 00:41:17
  TRACK 29 AUDIO
    TITLE "1Q_t_0239-0248_29"
    INDEX 01 00:41:33
  TRACK 30 AUDIO
    TITLE "1Q_t_0239-0248_30"
    INDEX 01 00:45:38
  TRACK 31 AUDIO
    TITLE "1Q_t_0239-0248_31"
    INDEX 01 00:46:14
  TRACK 32 AUDIO
    TITLE "1Q_t_0239-0248_32"
    INDEX 01 00:47:24
  TRACK 33 AUDIO
    TITLE "1Q_t_0239-0248_33"
    INDEX 01 00:47:39
  TRACK 34 AUDIO
    TITLE "1Q_t_0239-0248_34"
    INDEX 01 00:48:49
  TRACK 35 AUDIO
    TITLE "1Q_t_0239-0248_35"
    INDEX 01 00:48:60
  TRACK 36 AUDIO
    TITLE "1Q_t_0239-0248_36"
    INDEX 01 00:53:05
  TRACK 37 AUDIO
    TITLE "1Q_t_0239-0248_37"
    INDEX 01 00:53:59
  TRACK 38 AUDIO
    TITLE "1Q_t_0239-0248_38"
    INDEX 01 00:54:73
  TRACK 39 AUDIO
    TITLE "1Q_t_0239-0248_39"
    INDEX 01 00:55:13
  TRACK 40 AUDIO
    TITLE "1Q_t_0239-0248_40"
    INDEX 01 00:58:19
  TRACK 41 AUDIO
    TITLE "1Q_t_0239-0248_41"
    INDEX 01 00:58:37
  TRACK 42 AUDIO
    TITLE "1Q_t_0239-0248_42"
    INDEX 01 01:03:17
  TRACK 43 AUDIO
    TITLE "1Q_t_0239-0248_43"
    INDEX 01 01:03:72
  TRACK 44 AUDIO
    TITLE "1Q_t_0239-0248_44"
    INDEX 01 01:04:67
  TRACK 45 AUDIO
    TITLE "1Q_t_0239-0248_45"
    INDEX 01 01:05:10
  TRACK 46 AUDIO
    TITLE "1Q_t_0239-0248_46"
    INDEX 01 01:07:73
  TRACK 47 AUDIO
    TITLE "1Q_t_0239-0248_47"
    INDEX 01 01:08:16
  TRACK 48 AUDIO
    TITLE "1Q_t_0239-0248_48"
    INDEX 01 01:13:27
  TRACK 49 AUDIO
    TITLE "1Q_t_0239-0248_49"
    INDEX 01 01:14:05
  TRACK 50 AUDIO
    TITLE "1Q_t_0239-0248_50"
    INDEX 01 01:15:04
  TRACK 51 AUDIO
    TITLE "1Q_t_0239-0248_51"
    INDEX 01 01:15:20
  TRACK 52 AUDIO
    TITLE "1Q_t_0239-0248_52"
    INDEX 01 01:17:29
  TRACK 53 AUDIO
    TITLE "1Q_t_0239-0248_53"
    INDEX 01 01:17:42
  TRACK 54 AUDIO
    TITLE "1Q_t_0239-0248_54"
    INDEX 01 01:22:71
  TRACK 55 AUDIO
    TITLE "1Q_t_0239-0248_55"
    INDEX 01 01:23:49
  TRACK 56 AUDIO
    TITLE "1Q_t_0239-0248_56"
    INDEX 01 01:24:64
  TRACK 57 AUDIO
    TITLE "1Q_t_0239-0248_57"
    INDEX 01 01:25:05
  TRACK 58 AUDIO
    TITLE "1Q_t_0239-0248_58"
    INDEX 01 01:27:09
  TRACK 59 AUDIO
    TITLE "1Q_t_0239-0248_59"
    INDEX 01 01:27:25
  TRACK 60 AUDIO
    TITLE "1Q_t_0239-0248_60"
    INDEX 01 01:31:70
